<mxfile host="app.diagrams.net" agent="Mozilla/5.0 (Windows NT 10.0; Win64; x64) AppleWebKit/537.36 (KHTML, like Gecko) Chrome/130.0.0.0 Safari/537.36" version="24.8.3">
  <diagram name="Seite-1" id="iH3_wTDK2RzRT66gIBCv">
    <mxGraphModel dx="1290" dy="618" grid="1" gridSize="10" guides="1" tooltips="1" connect="1" arrows="1" fold="1" page="1" pageScale="1" pageWidth="827" pageHeight="1169" math="0" shadow="0">
      <root>
        <mxCell id="0" />
        <mxCell id="1" parent="0" />
        <mxCell id="uA-V-xtoLorRQKEx0sOQ-1" value="Client" style="shape=umlLifeline;perimeter=lifelinePerimeter;whiteSpace=wrap;html=1;container=1;dropTarget=0;collapsible=0;recursiveResize=0;outlineConnect=0;portConstraint=eastwest;newEdgeStyle={&quot;edgeStyle&quot;:&quot;elbowEdgeStyle&quot;,&quot;elbow&quot;:&quot;vertical&quot;,&quot;curved&quot;:0,&quot;rounded&quot;:0};" vertex="1" parent="1">
          <mxGeometry x="80" y="180" width="100" height="540" as="geometry" />
        </mxCell>
        <mxCell id="uA-V-xtoLorRQKEx0sOQ-5" value="" style="html=1;points=[[0,0,0,0,5],[0,1,0,0,-5],[1,0,0,0,5],[1,1,0,0,-5]];perimeter=orthogonalPerimeter;outlineConnect=0;targetShapes=umlLifeline;portConstraint=eastwest;newEdgeStyle={&quot;curved&quot;:0,&quot;rounded&quot;:0};" vertex="1" parent="uA-V-xtoLorRQKEx0sOQ-1">
          <mxGeometry x="40" y="70" width="17" height="360" as="geometry" />
        </mxCell>
        <mxCell id="uA-V-xtoLorRQKEx0sOQ-6" value="LogIn" style="html=1;verticalAlign=bottom;startArrow=oval;endArrow=block;startSize=8;curved=0;rounded=0;entryX=0;entryY=0;entryDx=0;entryDy=5;" edge="1" target="uA-V-xtoLorRQKEx0sOQ-5" parent="uA-V-xtoLorRQKEx0sOQ-1">
          <mxGeometry relative="1" as="geometry">
            <mxPoint x="-30" y="75" as="sourcePoint" />
          </mxGeometry>
        </mxCell>
        <mxCell id="uA-V-xtoLorRQKEx0sOQ-2" value="Server" style="shape=umlLifeline;perimeter=lifelinePerimeter;whiteSpace=wrap;html=1;container=1;dropTarget=0;collapsible=0;recursiveResize=0;outlineConnect=0;portConstraint=eastwest;newEdgeStyle={&quot;edgeStyle&quot;:&quot;elbowEdgeStyle&quot;,&quot;elbow&quot;:&quot;vertical&quot;,&quot;curved&quot;:0,&quot;rounded&quot;:0};" vertex="1" parent="1">
          <mxGeometry x="240" y="180" width="100" height="540" as="geometry" />
        </mxCell>
        <mxCell id="uA-V-xtoLorRQKEx0sOQ-7" value="" style="html=1;points=[[0,0,0,0,5],[0,1,0,0,-5],[1,0,0,0,5],[1,1,0,0,-5]];perimeter=orthogonalPerimeter;outlineConnect=0;targetShapes=umlLifeline;portConstraint=eastwest;newEdgeStyle={&quot;curved&quot;:0,&quot;rounded&quot;:0};" vertex="1" parent="uA-V-xtoLorRQKEx0sOQ-2">
          <mxGeometry x="40" y="140" width="20" height="320" as="geometry" />
        </mxCell>
        <mxCell id="uA-V-xtoLorRQKEx0sOQ-9" style="edgeStyle=orthogonalEdgeStyle;rounded=0;orthogonalLoop=1;jettySize=auto;html=1;curved=0;entryX=0;entryY=0;entryDx=0;entryDy=5;entryPerimeter=0;" edge="1" parent="1" source="uA-V-xtoLorRQKEx0sOQ-5" target="uA-V-xtoLorRQKEx0sOQ-7">
          <mxGeometry relative="1" as="geometry">
            <mxPoint x="280" y="325" as="targetPoint" />
            <Array as="points">
              <mxPoint x="280" y="330" />
            </Array>
          </mxGeometry>
        </mxCell>
        <mxCell id="uA-V-xtoLorRQKEx0sOQ-10" value="Send Password &amp;amp;&lt;br&gt;username" style="text;html=1;align=center;verticalAlign=middle;resizable=0;points=[];autosize=1;strokeColor=none;fillColor=none;" vertex="1" parent="1">
          <mxGeometry x="150" y="290" width="120" height="40" as="geometry" />
        </mxCell>
        <mxCell id="uA-V-xtoLorRQKEx0sOQ-12" value="Database" style="shape=umlLifeline;perimeter=lifelinePerimeter;whiteSpace=wrap;html=1;container=1;dropTarget=0;collapsible=0;recursiveResize=0;outlineConnect=0;portConstraint=eastwest;newEdgeStyle={&quot;edgeStyle&quot;:&quot;elbowEdgeStyle&quot;,&quot;elbow&quot;:&quot;vertical&quot;,&quot;curved&quot;:0,&quot;rounded&quot;:0};" vertex="1" parent="1">
          <mxGeometry x="414" y="180" width="100" height="540" as="geometry" />
        </mxCell>
        <mxCell id="uA-V-xtoLorRQKEx0sOQ-14" value="" style="html=1;points=[[0,0,0,0,5],[0,1,0,0,-5],[1,0,0,0,5],[1,1,0,0,-5]];perimeter=orthogonalPerimeter;outlineConnect=0;targetShapes=umlLifeline;portConstraint=eastwest;newEdgeStyle={&quot;curved&quot;:0,&quot;rounded&quot;:0};" vertex="1" parent="uA-V-xtoLorRQKEx0sOQ-12">
          <mxGeometry x="40" y="160" width="20" height="80" as="geometry" />
        </mxCell>
        <mxCell id="uA-V-xtoLorRQKEx0sOQ-15" value="Check Input" style="html=1;verticalAlign=bottom;endArrow=block;curved=0;rounded=0;entryX=0;entryY=0;entryDx=0;entryDy=5;" edge="1" target="uA-V-xtoLorRQKEx0sOQ-14" parent="1" source="uA-V-xtoLorRQKEx0sOQ-7">
          <mxGeometry relative="1" as="geometry">
            <mxPoint x="320" y="345" as="sourcePoint" />
          </mxGeometry>
        </mxCell>
        <mxCell id="uA-V-xtoLorRQKEx0sOQ-16" value="return User or None" style="html=1;verticalAlign=bottom;endArrow=open;dashed=1;endSize=8;curved=0;rounded=0;exitX=0;exitY=1;exitDx=0;exitDy=-5;" edge="1" source="uA-V-xtoLorRQKEx0sOQ-14" parent="1" target="uA-V-xtoLorRQKEx0sOQ-7">
          <mxGeometry relative="1" as="geometry">
            <mxPoint x="320" y="415" as="targetPoint" />
          </mxGeometry>
        </mxCell>
        <mxCell id="uA-V-xtoLorRQKEx0sOQ-17" value="frame" style="shape=umlFrame;whiteSpace=wrap;html=1;pointerEvents=0;" vertex="1" parent="1">
          <mxGeometry x="10" y="430" width="520" height="270" as="geometry" />
        </mxCell>
        <mxCell id="uA-V-xtoLorRQKEx0sOQ-18" value="" style="endArrow=none;dashed=1;html=1;rounded=0;exitX=-0.002;exitY=0.406;exitDx=0;exitDy=0;exitPerimeter=0;entryX=1.006;entryY=0.406;entryDx=0;entryDy=0;entryPerimeter=0;" edge="1" parent="1" source="uA-V-xtoLorRQKEx0sOQ-17" target="uA-V-xtoLorRQKEx0sOQ-17">
          <mxGeometry width="50" height="50" relative="1" as="geometry">
            <mxPoint x="390" y="450" as="sourcePoint" />
            <mxPoint x="440" y="400" as="targetPoint" />
            <Array as="points">
              <mxPoint x="270" y="540" />
            </Array>
          </mxGeometry>
        </mxCell>
        <mxCell id="uA-V-xtoLorRQKEx0sOQ-19" value="" style="edgeStyle=elbowEdgeStyle;fontSize=12;html=1;endArrow=blockThin;endFill=1;rounded=0;" edge="1" parent="1">
          <mxGeometry width="160" relative="1" as="geometry">
            <mxPoint x="330" y="430" as="sourcePoint" />
            <mxPoint x="490" y="430" as="targetPoint" />
          </mxGeometry>
        </mxCell>
        <mxCell id="uA-V-xtoLorRQKEx0sOQ-20" value="return Error" style="html=1;verticalAlign=bottom;endArrow=open;dashed=1;endSize=8;curved=0;rounded=0;" edge="1" parent="1">
          <mxGeometry relative="1" as="geometry">
            <mxPoint x="140" y="480" as="targetPoint" />
            <mxPoint x="280" y="480" as="sourcePoint" />
          </mxGeometry>
        </mxCell>
        <mxCell id="uA-V-xtoLorRQKEx0sOQ-21" value="[If res is None]" style="text;html=1;align=center;verticalAlign=middle;resizable=0;points=[];autosize=1;strokeColor=none;fillColor=none;" vertex="1" parent="1">
          <mxGeometry x="70" y="435" width="100" height="30" as="geometry" />
        </mxCell>
        <mxCell id="uA-V-xtoLorRQKEx0sOQ-22" value="[else]" style="text;html=1;align=center;verticalAlign=middle;resizable=0;points=[];autosize=1;strokeColor=none;fillColor=none;" vertex="1" parent="1">
          <mxGeometry x="10" y="540" width="50" height="30" as="geometry" />
        </mxCell>
        <mxCell id="uA-V-xtoLorRQKEx0sOQ-23" value="" style="html=1;points=[[0,0,0,0,5],[0,1,0,0,-5],[1,0,0,0,5],[1,1,0,0,-5]];perimeter=orthogonalPerimeter;outlineConnect=0;targetShapes=umlLifeline;portConstraint=eastwest;newEdgeStyle={&quot;curved&quot;:0,&quot;rounded&quot;:0};" vertex="1" parent="1">
          <mxGeometry x="453.5" y="570" width="21" height="40" as="geometry" />
        </mxCell>
        <mxCell id="uA-V-xtoLorRQKEx0sOQ-24" value="" style="edgeStyle=elbowEdgeStyle;fontSize=12;html=1;endArrow=blockThin;endFill=1;rounded=0;" edge="1" parent="1">
          <mxGeometry width="160" relative="1" as="geometry">
            <mxPoint x="300" y="570" as="sourcePoint" />
            <mxPoint x="450" y="570" as="targetPoint" />
          </mxGeometry>
        </mxCell>
        <mxCell id="uA-V-xtoLorRQKEx0sOQ-25" value="Set Session Key" style="text;html=1;align=center;verticalAlign=middle;resizable=0;points=[];autosize=1;strokeColor=none;fillColor=none;" vertex="1" parent="1">
          <mxGeometry x="320" y="540" width="110" height="30" as="geometry" />
        </mxCell>
        <mxCell id="uA-V-xtoLorRQKEx0sOQ-26" value="" style="edgeStyle=elbowEdgeStyle;fontSize=12;html=1;endArrow=blockThin;endFill=1;rounded=0;" edge="1" parent="1" target="uA-V-xtoLorRQKEx0sOQ-5">
          <mxGeometry width="160" relative="1" as="geometry">
            <mxPoint x="280" y="590" as="sourcePoint" />
            <mxPoint x="280" y="589.5" as="targetPoint" />
            <Array as="points">
              <mxPoint x="280" y="590" />
            </Array>
          </mxGeometry>
        </mxCell>
        <mxCell id="uA-V-xtoLorRQKEx0sOQ-27" value="Send session Key" style="text;html=1;align=center;verticalAlign=middle;resizable=0;points=[];autosize=1;strokeColor=none;fillColor=none;" vertex="1" parent="1">
          <mxGeometry x="150" y="555" width="120" height="30" as="geometry" />
        </mxCell>
        <mxCell id="uA-V-xtoLorRQKEx0sOQ-31" value="Client" style="shape=umlLifeline;perimeter=lifelinePerimeter;whiteSpace=wrap;html=1;container=1;dropTarget=0;collapsible=0;recursiveResize=0;outlineConnect=0;portConstraint=eastwest;newEdgeStyle={&quot;edgeStyle&quot;:&quot;elbowEdgeStyle&quot;,&quot;elbow&quot;:&quot;vertical&quot;,&quot;curved&quot;:0,&quot;rounded&quot;:0};" vertex="1" parent="1">
          <mxGeometry x="60" y="850" width="100" height="360" as="geometry" />
        </mxCell>
        <mxCell id="uA-V-xtoLorRQKEx0sOQ-33" value="" style="html=1;points=[[0,0,0,0,5],[0,1,0,0,-5],[1,0,0,0,5],[1,1,0,0,-5]];perimeter=orthogonalPerimeter;outlineConnect=0;targetShapes=umlLifeline;portConstraint=eastwest;newEdgeStyle={&quot;curved&quot;:0,&quot;rounded&quot;:0};" vertex="1" parent="uA-V-xtoLorRQKEx0sOQ-31">
          <mxGeometry x="40" y="80" width="20" height="170" as="geometry" />
        </mxCell>
        <mxCell id="uA-V-xtoLorRQKEx0sOQ-34" value="Create User" style="html=1;verticalAlign=bottom;startArrow=oval;endArrow=block;startSize=8;curved=0;rounded=0;entryX=0;entryY=0;entryDx=0;entryDy=5;" edge="1" target="uA-V-xtoLorRQKEx0sOQ-33" parent="uA-V-xtoLorRQKEx0sOQ-31">
          <mxGeometry relative="1" as="geometry">
            <mxPoint x="-30" y="85" as="sourcePoint" />
          </mxGeometry>
        </mxCell>
        <mxCell id="uA-V-xtoLorRQKEx0sOQ-32" value="Server" style="shape=umlLifeline;perimeter=lifelinePerimeter;whiteSpace=wrap;html=1;container=1;dropTarget=0;collapsible=0;recursiveResize=0;outlineConnect=0;portConstraint=eastwest;newEdgeStyle={&quot;edgeStyle&quot;:&quot;elbowEdgeStyle&quot;,&quot;elbow&quot;:&quot;vertical&quot;,&quot;curved&quot;:0,&quot;rounded&quot;:0};" vertex="1" parent="1">
          <mxGeometry x="180" y="850" width="100" height="350" as="geometry" />
        </mxCell>
        <mxCell id="uA-V-xtoLorRQKEx0sOQ-36" value="" style="html=1;points=[[0,0,0,0,5],[0,1,0,0,-5],[1,0,0,0,5],[1,1,0,0,-5]];perimeter=orthogonalPerimeter;outlineConnect=0;targetShapes=umlLifeline;portConstraint=eastwest;newEdgeStyle={&quot;curved&quot;:0,&quot;rounded&quot;:0};" vertex="1" parent="uA-V-xtoLorRQKEx0sOQ-32">
          <mxGeometry x="40" y="90" width="20" height="100" as="geometry" />
        </mxCell>
        <mxCell id="uA-V-xtoLorRQKEx0sOQ-35" value="Database" style="shape=umlLifeline;perimeter=lifelinePerimeter;whiteSpace=wrap;html=1;container=1;dropTarget=0;collapsible=0;recursiveResize=0;outlineConnect=0;portConstraint=eastwest;newEdgeStyle={&quot;edgeStyle&quot;:&quot;elbowEdgeStyle&quot;,&quot;elbow&quot;:&quot;vertical&quot;,&quot;curved&quot;:0,&quot;rounded&quot;:0};" vertex="1" parent="1">
          <mxGeometry x="290" y="850" width="100" height="350" as="geometry" />
        </mxCell>
        <mxCell id="uA-V-xtoLorRQKEx0sOQ-39" value="" style="html=1;points=[[0,0,0,0,5],[0,1,0,0,-5],[1,0,0,0,5],[1,1,0,0,-5]];perimeter=orthogonalPerimeter;outlineConnect=0;targetShapes=umlLifeline;portConstraint=eastwest;newEdgeStyle={&quot;curved&quot;:0,&quot;rounded&quot;:0};" vertex="1" parent="uA-V-xtoLorRQKEx0sOQ-35">
          <mxGeometry x="40" y="100" width="20" height="70" as="geometry" />
        </mxCell>
        <mxCell id="uA-V-xtoLorRQKEx0sOQ-37" value="Send Data" style="html=1;verticalAlign=bottom;endArrow=block;curved=0;rounded=0;entryX=0;entryY=0;entryDx=0;entryDy=5;" edge="1" target="uA-V-xtoLorRQKEx0sOQ-36" parent="1" source="uA-V-xtoLorRQKEx0sOQ-33">
          <mxGeometry relative="1" as="geometry">
            <mxPoint x="160" y="945" as="sourcePoint" />
          </mxGeometry>
        </mxCell>
        <mxCell id="uA-V-xtoLorRQKEx0sOQ-38" value="return" style="html=1;verticalAlign=bottom;endArrow=open;dashed=1;endSize=8;curved=0;rounded=0;exitX=0;exitY=1;exitDx=0;exitDy=-5;" edge="1" source="uA-V-xtoLorRQKEx0sOQ-36" parent="1" target="uA-V-xtoLorRQKEx0sOQ-33">
          <mxGeometry relative="1" as="geometry">
            <mxPoint x="160" y="1015" as="targetPoint" />
          </mxGeometry>
        </mxCell>
        <mxCell id="uA-V-xtoLorRQKEx0sOQ-41" value="return" style="html=1;verticalAlign=bottom;endArrow=open;dashed=1;endSize=8;curved=0;rounded=0;" edge="1" parent="1" target="uA-V-xtoLorRQKEx0sOQ-36">
          <mxGeometry relative="1" as="geometry">
            <mxPoint x="420" y="1025" as="targetPoint" />
            <mxPoint x="330" y="1015" as="sourcePoint" />
          </mxGeometry>
        </mxCell>
        <mxCell id="uA-V-xtoLorRQKEx0sOQ-40" value="Store User" style="html=1;verticalAlign=bottom;endArrow=block;curved=0;rounded=0;" edge="1" parent="1" source="uA-V-xtoLorRQKEx0sOQ-36">
          <mxGeometry relative="1" as="geometry">
            <mxPoint x="420" y="955" as="sourcePoint" />
            <mxPoint x="330" y="955" as="targetPoint" />
          </mxGeometry>
        </mxCell>
      </root>
    </mxGraphModel>
  </diagram>
</mxfile>
